<svg version="1" xmlns="http://www.w3.org/2000/svg" viewBox="0 0 184.25 68.03"><path d="M4.9 40.1V28.04h4.32c3.44 0 5.95 2.23 5.95 6.04S12.64 40.1 9.2 40.1H4.9zm4.22-2.18c1.97 0 3.62-1.22 3.62-3.84s-1.63-3.86-3.61-3.86H7.24v7.7h1.88zm8.56-10.34c.78 0 1.39.63 1.39 1.41 0 .75-.61 1.38-1.39 1.38-.77 0-1.4-.63-1.4-1.38.01-.78.63-1.41 1.4-1.41zM16.56 40.1v-8.37h2.26v8.37h-2.26zm5.66-.09c.15.92.88 1.58 1.96 1.58 1.43 0 2.23-.71 2.23-2.33v-.61c-.34.54-1.12 1.07-2.33 1.07-2.23 0-3.89-1.72-3.89-4.06 0-2.21 1.6-4.08 3.89-4.08 1.33 0 2.09.58 2.38 1.14v-.99h2.18v7.46c0 2.3-1.24 4.39-4.39 4.39-2.3 0-3.83-1.43-4.06-3.03l2.03-.54zm4.21-4.35c0-1.29-.88-2.11-1.97-2.11-1.12 0-2.01.82-2.01 2.11 0 1.31.83 2.13 2.01 2.13 1.16-.01 1.97-.84 1.97-2.13zm5.23-8.08c.78 0 1.39.63 1.39 1.41 0 .75-.61 1.38-1.39 1.38-.77 0-1.4-.63-1.4-1.38 0-.78.63-1.41 1.4-1.41zM30.54 40.1v-8.37h2.26v8.37h-2.26zm7.02-8.37h1.68v2.01h-1.68v3.5c0 .73.34.97.99.97.27 0 .58-.03.7-.07v1.87c-.2.08-.61.2-1.28.2-1.63 0-2.65-.97-2.65-2.58v-3.89H33.8v-2.01h.42c.88 0 1.29-.58 1.29-1.33v-1.17h2.04v2.5zm5.15 3.55l2.06-.31c.48-.07.63-.31.63-.59 0-.6-.46-1.09-1.41-1.09-.99 0-1.53.63-1.6 1.36l-2.01-.42c.14-1.31 1.34-2.75 3.59-2.75 2.65 0 3.64 1.5 3.64 3.18v4.11c0 .44.05 1.04.1 1.33h-2.08c-.05-.22-.08-.68-.08-1-.42.66-1.22 1.24-2.47 1.24-1.78 0-2.87-1.21-2.87-2.52 0-1.5 1.1-2.33 2.5-2.54zm2.69 1.43v-.37l-1.89.29c-.58.08-1.04.41-1.04 1.05 0 .49.36.97 1.09.97.95 0 1.84-.46 1.84-1.94zm4.07 3.39V27.79h2.26V40.1h-2.26zm9.61-.34V27.7h2.38v12.05h-2.38zm4.37 0v-8.37h2.16v1.02c.46-.82 1.53-1.26 2.45-1.26 1.14 0 2.06.49 2.48 1.39.66-1.02 1.55-1.39 2.65-1.39 1.55 0 3.03.94 3.03 3.18v5.42h-2.19v-4.97c0-.9-.44-1.58-1.48-1.58-.97 0-1.55.75-1.55 1.65v4.9h-2.24v-4.97c0-.9-.46-1.58-1.48-1.58-.99 0-1.56.73-1.56 1.65v4.9h-2.27zm14.67 3.23v-11.6h2.19v1.02c.37-.65 1.31-1.21 2.57-1.21 2.45 0 3.86 1.87 3.86 4.35 0 2.53-1.58 4.4-3.95 4.4-1.16 0-2.01-.46-2.42-1.02v4.05h-2.25zm4.32-9.76c-1.16 0-2.09.87-2.09 2.35s.93 2.36 2.09 2.36c1.16 0 2.08-.87 2.08-2.36 0-1.49-.92-2.35-2.08-2.35zm7.75 1.71l2.06-.31c.48-.07.63-.31.63-.59 0-.6-.46-1.09-1.41-1.09-.99 0-1.53.63-1.6 1.36l-2.01-.42c.14-1.31 1.34-2.75 3.59-2.75 2.65 0 3.64 1.5 3.64 3.18v4.11c0 .44.05 1.04.1 1.33h-2.08c-.05-.22-.08-.68-.08-1-.42.66-1.22 1.24-2.47 1.24-1.78 0-2.87-1.21-2.87-2.52 0-1.5 1.1-2.33 2.5-2.54zm2.68 1.43V36l-1.89.29c-.58.08-1.04.41-1.04 1.05 0 .49.36.97 1.09.97.96 0 1.84-.46 1.84-1.94zm5.76-.8c0 1.51.99 2.36 2.14 2.36s1.73-.77 1.92-1.41l1.99.66c-.37 1.39-1.68 2.82-3.91 2.82-2.47 0-4.4-1.87-4.4-4.44 0-2.58 1.9-4.44 4.34-4.44 2.28 0 3.57 1.41 3.93 2.82l-2.02.68c-.2-.7-.73-1.41-1.85-1.41-1.17.02-2.14.85-2.14 2.36zm10.39-4.18h1.68v2.01h-1.68v3.5c0 .73.34.97.99.97.27 0 .58-.03.7-.07v1.87c-.2.08-.61.2-1.28.2-1.63 0-2.65-.97-2.65-2.58V33.4h-1.51v-2.01h.42c.88 0 1.29-.58 1.29-1.33v-1.17h2.04v2.5zm15.59 5.71h-4.9l-1 2.75h-2.48l4.63-12.05h2.72l4.59 12.05h-2.55l-1.01-2.75zm-4.12-2.14h3.33l-1.67-4.56-1.66 4.56zm8.71 4.9V27.55h2.26v12.31h-2.26zm4.2 0V27.55h2.26v12.31h-2.26zm5.32-12.52c.78 0 1.39.63 1.39 1.41 0 .75-.61 1.38-1.39 1.38-.77 0-1.4-.63-1.4-1.38.01-.78.64-1.41 1.4-1.41zm-1.12 12.52v-8.37h2.26v8.37h-2.26zm6.23-4.81l2.06-.31c.48-.07.63-.31.63-.59 0-.6-.46-1.09-1.41-1.09-.99 0-1.53.63-1.6 1.36L141.5 34c.14-1.31 1.34-2.75 3.59-2.75 2.65 0 3.64 1.5 3.64 3.18v4.11c0 .44.05 1.04.1 1.33h-2.08c-.05-.22-.08-.68-.08-1-.42.66-1.22 1.24-2.47 1.24-1.78 0-2.87-1.21-2.87-2.52 0-1.51 1.11-2.34 2.5-2.54zm2.69 1.42v-.37l-1.89.29c-.58.08-1.04.41-1.04 1.05 0 .49.36.97 1.09.97.95 0 1.84-.46 1.84-1.94zm6.32 3.39h-2.26v-8.37h2.19v1.04c.51-.87 1.51-1.26 2.42-1.26 2.08 0 3.03 1.48 3.03 3.32v5.27h-2.26v-4.88c0-.93-.46-1.67-1.55-1.67-.99 0-1.56.76-1.56 1.73v4.82zm8.97-4.19c0 1.51.99 2.36 2.14 2.36 1.16 0 1.73-.77 1.92-1.41l1.99.66c-.37 1.39-1.68 2.82-3.91 2.82-2.47 0-4.4-1.87-4.4-4.44 0-2.58 1.9-4.44 4.34-4.44 2.28 0 3.57 1.41 3.93 2.82l-2.02.68c-.2-.7-.73-1.41-1.85-1.41-1.17.02-2.14.85-2.14 2.36zm14.92 1.79c-.42 1.44-1.75 2.65-3.81 2.65-2.3 0-4.32-1.65-4.32-4.47 0-2.67 1.97-4.4 4.12-4.4 2.59 0 4.13 1.65 4.13 4.34 0 .32-.03.66-.03.7h-5.99c.05 1.11.99 1.9 2.11 1.9 1.06 0 1.63-.53 1.91-1.28l1.88.56zm-2.11-2.74c-.03-.83-.58-1.65-1.87-1.65-1.17 0-1.82.88-1.87 1.65h3.74z" fill="#fff"/></svg>